<?xml version="1.0" encoding="UTF-8" standalone="no"?>
<!-- Created with Inkscape (http://www.inkscape.org/) -->

<svg
   xmlns:dc="http://purl.org/dc/elements/1.1/"
   xmlns:cc="http://creativecommons.org/ns#"
   xmlns:rdf="http://www.w3.org/1999/02/22-rdf-syntax-ns#"
   xmlns:svg="http://www.w3.org/2000/svg"
   xmlns="http://www.w3.org/2000/svg"
   xmlns:sodipodi="http://sodipodi.sourceforge.net/DTD/sodipodi-0.dtd"
   xmlns:inkscape="http://www.inkscape.org/namespaces/inkscape"
   width="100mm"
   height="100mm"
   viewBox="0 0 100 100"
   version="1.1"
   id="svg8"
   sodipodi:docname="icon.svg"
   inkscape:version="0.92.3 (2405546, 2018-03-11)"
   inkscape:export-filename="/home/operador/pyworkspace/server-ux/document_quick_access_folder_auto_classification/static/description/icon.png"
   inkscape:export-xdpi="96"
   inkscape:export-ydpi="96">
  <defs
     id="defs2">
    <clipPath
       clipPathUnits="userSpaceOnUse"
       id="clipPath4562">
      <rect
         ry="4.1577382"
         y="13.040181"
         x="-124.92113"
         height="98.866074"
         width="99.811012"
         id="rect4564"
         style="fill:#aa0000;stroke-width:0.26458332"
         clip-path="none" />
    </clipPath>
    <clipPath
       clipPathUnits="userSpaceOnUse"
       id="clipPath4578">
      <rect
         ry="4.1577382"
         y="1.5119057"
         x="-120.00744"
         height="97.930626"
         width="99.811012"
         id="rect4580"
         style="fill:#aa0000;stroke-width:0.26458332" />
    </clipPath>
  </defs>
  <sodipodi:namedview
     id="base"
     pagecolor="#ffffff"
     bordercolor="#666666"
     borderopacity="1.0"
     inkscape:pageopacity="0.0"
     inkscape:pageshadow="2"
     inkscape:zoom="0.98994949"
     inkscape:cx="-138.74517"
     inkscape:cy="82.14128"
     inkscape:document-units="mm"
     inkscape:current-layer="layer2"
     showgrid="false"
     inkscape:snap-page="true"
     showguides="true"
     inkscape:guide-bbox="true"
     inkscape:window-width="1853"
     inkscape:window-height="1025"
     inkscape:window-x="67"
     inkscape:window-y="27"
     inkscape:window-maximized="1"
     inkscape:snap-global="false">
    <sodipodi:guide
       position="30.552248,77.825545"
       orientation="-0.70710678,0.70710678"
       id="guide4619"
       inkscape:locked="false" />
    <sodipodi:guide
       position="58.480003,78.595424"
       orientation="-0.70710678,0.70710678"
       id="guide4623"
       inkscape:locked="false" />
    <sodipodi:guide
       position="72.162772,22.759671"
       orientation="-0.70710678,0.70710678"
       id="guide4625"
       inkscape:locked="false" />
    <sodipodi:guide
       position="72.697311,64.278321"
       orientation="-0.70710678,0.70710678"
       id="guide5268"
       inkscape:locked="false"
       inkscape:label=""
       inkscape:color="rgb(0,0,255)" />
  </sodipodi:namedview>
  <metadata
     id="metadata5">
    <rdf:RDF>
      <cc:Work
         rdf:about="">
        <dc:format>image/svg+xml</dc:format>
        <dc:type
           rdf:resource="http://purl.org/dc/dcmitype/StillImage" />
        <dc:title></dc:title>
      </cc:Work>
    </rdf:RDF>
  </metadata>
  <g
     inkscape:label="Layer 1"
     inkscape:groupmode="layer"
     id="layer1"
     transform="translate(0,-197)"
     style="display:inline" />
  <g
     inkscape:groupmode="layer"
     id="layer2"
     inkscape:label="Layer 2"
     style="display:inline">
    <rect
       y="0"
       x="0"
       height="25.164532"
       width="100"
       id="rect4535"
       style="fill:#1d55c5;stroke-width:0.13272627;fill-opacity:1"
       ry="4.9136906"
       inkscape:export-xdpi="91.327972"
       inkscape:export-ydpi="91.327972" />
    <rect
       ry="4.9136906"
       style="fill:#1d3a8d;stroke-width:0.13272627;fill-opacity:1"
       id="rect4566"
       width="100"
       height="25.164532"
       x="0.18899068"
       y="74.958138"
       inkscape:export-xdpi="91.327972"
       inkscape:export-ydpi="91.327972" />
    <rect
       style="fill:#1d55c1;fill-opacity:1;stroke-width:0.26458332"
       id="rect914"
       width="99.811012"
       height="97.930626"
       x="0.18898809"
       y="1.0512472"
       ry="4.1577382"
       inkscape:export-xdpi="91.327972"
       inkscape:export-ydpi="91.327972" />
    <path
       style="fill:#00056b;fill-opacity:1;stroke:none;stroke-width:0.99999994px;stroke-linecap:butt;stroke-linejoin:miter;stroke-opacity:1"
       d="M 220.37109 81.576172 L 195.36914 106.57812 L 114.30469 85.111328 L 0.71484375 198.70117 L 0.71484375 358.39062 C 0.71484375 367.09634 7.7220199 374.10547 16.427734 374.10547 L 190.98633 374.10547 L 272.14062 292.95117 L 269.11133 197.49219 L 241.33203 169.20703 L 274.66602 135.87305 L 220.37109 81.576172 z "
       transform="scale(0.26458333)"
       id="path5419" />
  </g>
  <g
     inkscape:groupmode="layer"
     id="layer8"
     inkscape:label="Layer 5" />
  <g
     inkscape:groupmode="layer"
     id="layer6"
     inkscape:label="Layer 3">
    <path
       id="path5375-1"
       d="M 60.353822,51.661998 H 38.819834 v 7.088908 H 60.353822 Z M 70.33572,34.936611 59.355631,24.081724 c -0.504704,-0.498439 -1.188855,-0.775349 -1.906654,-0.775349 h -0.684154 v 14.177812 h 14.355992 v -0.675662 c 0,-0.697814 -0.280392,-1.373475 -0.785095,-1.871914 z M 53.175826,38.370299 V 23.306375 H 30.744588 c -1.491677,0 -2.691748,1.185176 -2.691748,2.658339 v 51.39457 c 0,1.473161 1.200071,2.65834 2.691748,2.65834 h 37.684478 c 1.491676,0 2.691749,-1.185179 2.691749,-2.65834 V 41.028639 H 55.867573 c -1.480461,0 -2.691747,-1.196252 -2.691747,-2.65834 z m -17.94499,-7.088905 c 0,-0.489577 0.401518,-0.886113 0.897249,-0.886113 h 8.972495 c 0.49573,0 0.897248,0.396536 0.897248,0.886113 v 1.772226 c 0,0.489579 -0.401518,0.886113 -0.897248,0.886113 h -8.972495 c -0.495731,0 -0.897249,-0.396534 -0.897249,-0.886113 z m 0,7.088905 c 0,-0.489576 0.401518,-0.886112 0.897249,-0.886112 h 8.972495 c 0.49573,0 0.897248,0.396536 0.897248,0.886112 v 1.772227 c 0,0.489579 -0.401518,0.886113 -0.897248,0.886113 h -8.972495 c -0.495731,0 -0.897249,-0.396534 -0.897249,-0.886113 z M 63.94282,72.042604 c 0,0.489574 -0.401521,0.886111 -0.897249,0.886111 h -8.972497 c -0.49573,0 -0.897248,-0.396537 -0.897248,-0.886111 v -1.77223 c 0,-0.489577 0.401518,-0.886108 0.897248,-0.886108 h 8.972497 c 0.495728,0 0.897249,0.396531 0.897249,0.886108 z m 0,-22.152832 v 10.63336 c 0,0.979154 -0.803039,1.772227 -1.794499,1.772227 H 37.025334 c -0.99146,0 -1.794498,-0.793073 -1.794498,-1.772227 v -10.63336 c 0,-0.979155 0.803038,-1.772227 1.794498,-1.772227 h 25.122987 c 0.99146,0 1.794499,0.793072 1.794499,1.772227 z"
       inkscape:connector-curvature="0"
       style="fill:#000000;stroke-width:0.11145799;fill-opacity:1" />
  </g>
  <g
     inkscape:groupmode="layer"
     id="layer7"
     inkscape:label="Layer 4">
    <path
       id="path5375"
       d="M 62.082742,49.753329 H 40.548755 v 7.088906 H 62.082742 Z M 72.064641,33.027942 61.084552,22.173055 c -0.504703,-0.498439 -1.188856,-0.775349 -1.906655,-0.775349 h -0.684154 v 14.177812 h 14.355992 v -0.675662 c 0,-0.697814 -0.280392,-1.373475 -0.785094,-1.871914 z M 54.904747,36.46163 V 21.397706 H 32.473509 c -1.491677,0 -2.691748,1.185176 -2.691748,2.658339 v 51.39457 c 0,1.47316 1.200071,2.658339 2.691748,2.658339 h 37.684478 c 1.491677,0 2.691748,-1.185179 2.691748,-2.658339 V 39.11997 H 57.596494 c -1.480461,0 -2.691747,-1.196252 -2.691747,-2.65834 z m -17.94499,-7.088905 c 0,-0.489577 0.401518,-0.886113 0.897249,-0.886113 h 8.972495 c 0.49573,0 0.897248,0.396536 0.897248,0.886113 v 1.772226 c 0,0.489579 -0.401518,0.886113 -0.897248,0.886113 h -8.972495 c -0.495731,0 -0.897249,-0.396534 -0.897249,-0.886113 z m 0,7.088905 c 0,-0.489576 0.401518,-0.886112 0.897249,-0.886112 h 8.972495 c 0.49573,0 0.897248,0.396536 0.897248,0.886112 v 1.772227 c 0,0.489579 -0.401518,0.886113 -0.897248,0.886113 h -8.972495 c -0.495731,0 -0.897249,-0.396534 -0.897249,-0.886113 z M 65.67174,70.133935 c 0,0.489574 -0.401519,0.886111 -0.89725,0.886111 h -8.972495 c -0.49573,0 -0.897248,-0.396537 -0.897248,-0.886111 v -1.772229 c 0,-0.489579 0.401518,-0.88611 0.897248,-0.88611 h 8.972495 c 0.495731,0 0.89725,0.396531 0.89725,0.88611 z m 0,-22.152832 v 10.633359 c 0,0.979155 -0.803039,1.772227 -1.794499,1.772227 H 38.754255 c -0.99146,0 -1.794498,-0.793072 -1.794498,-1.772227 V 47.981103 c 0,-0.979155 0.803038,-1.772227 1.794498,-1.772227 h 25.122986 c 0.99146,0 1.794499,0.793072 1.794499,1.772227 z"
       inkscape:connector-curvature="0"
       style="fill:#ffffff;stroke-width:0.11145799;fill-opacity:1" />
  </g>
</svg>
