<svg xmlns="http://www.w3.org/2000/svg" xmlns:xlink="http://www.w3.org/1999/xlink" width="70" height="70"
     viewBox="0 0 70 70">
    <defs>
        <path id="a" d="M4 0h61c4 0 5 1 5 5v60c0 4-1 5-5 5H4c-3 0-4-1-4-5V5c0-4 1-5 4-5z"/>
        <linearGradient id="c" x1="98.162%" x2="0%" y1="1.838%" y2="100%">
            <stop offset="0%" stop-color="#7e817e"/>
            <stop offset="50.799%" stop-color="#6f716f"/>
            <stop offset="100%" stop-color="#5c5e5c"/>
        </linearGradient>
    </defs>
    <g fill="none" fill-rule="evenodd">
        <mask id="b" fill="#fff">
            <use xlink:href="#a"/>
        </mask>
        <g mask="url(#b)">
            <path fill="url(#c)" d="M0 0H70V70H0z"/>
            <path fill="#FFF" fill-opacity=".383" d="M4 1h61c2.667 0 4.333.667 5 2V0H0v3c.667-1.333 2-2 4-2z"/>
            <path fill="#000" fill-opacity=".383" d="M4 69h61c2.667 0 4.333-1 5-3v4H0v-4c.667 2 2 3 4 3z"/>
  <g id="svg_7" opacity=".324">
   <rect transform="rotate(45 51.27104568481445,37.27653121948243) " id="svg_5" height="11.77295" width="5.1857" y="31.39006" x="48.6782" stroke-opacity="null" stroke-width="0" stroke="#000" fill="#393939"/>
   <rect id="svg_4" height="29.92291" width="33.2866" y="16.81849" x="19.05747" stroke-opacity="null" stroke-width="0" stroke="#000" fill="#393939"/>
   <rect transform="rotate(45 15.428278923034663,50.9838638305664) " id="svg_3" height="50.87789" width="53.91044" y="25.54492" x="-11.52694" stroke-opacity="null" stroke-width="0" fill="#393939"/>
   <rect transform="rotate(45 50.331520080566385,48.60114669799806) " id="svg_6" height="11.77295" width="7.29566" y="42.71468" x="46.68369" stroke-opacity="null" stroke-width="0" fill="#393939"/>
  </g>
            <path stroke="null" fill="#000000" stroke-width="1.33333" id="svg_1" d="m38.28985,59.86604c0,-3.77303 1.55933,-6.5561 6.46408,-11.53697l4.76624,-4.8402l3.02301,2.99147c1.66266,1.64531 3.02302,3.23935 3.02302,3.5423c0,0.94801 -9.08117,9.50519 -10.73228,10.11302c-0.86382,0.31801 -2.68961,0.73321 -4.05733,0.92267c-2.48011,0.34356 -2.48674,0.34037 -2.48674,-1.19229zm6.28231,-2.9786c0,-0.79645 -1.07041,-1.88583 -1.85301,-1.88583c-0.71428,0 -1.94318,2.50484 -1.54499,3.14912c0.38863,0.62882 3.398,-0.48998 3.398,-1.26329zm-29.20394,0.43826c-2.63426,-1.84511 -2.73112,-2.59227 -2.73112,-21.06689c0,-10.93198 0.20556,-17.8139 0.56269,-18.83838c1.13276,-3.24943 1.16196,-3.25382 21.64492,-3.25382l18.57979,0l1.39342,1.39342c2.01723,2.01723 2.31885,3.68228 2.31885,12.8007l0,8.18049l-1.96322,0.3245c-1.07977,0.17847 -2.2577,0.32709 -2.61763,0.33026c-0.49263,0.00434 -0.6544,-1.80606 -0.6544,-7.3236l0,-7.32936l-17.28426,0l-17.28425,0l0.13879,15.31313l0.13879,15.31312l9.68522,0.26177c10.69266,0.28899 9.9109,-0.01335 9.13699,3.5338c-0.2554,1.17055 -0.31845,1.17793 -10.07752,1.17793c-8.05182,0 -10.03063,-0.14716 -10.98706,-0.81707zm38.36808,-11.74508l-3.09401,-3.12663l1.51285,-1.57907c1.99885,-2.08635 3.31927,-1.9916 5.66067,0.40622c2.36005,2.4169 2.49267,4.09379 0.47654,6.02537l-1.46205,1.40073l-3.094,-3.12662zm-31.54486,1.74491c-0.36719,-0.14816 -0.65441,-1.16401 -0.65441,-2.31454l0,-2.05047l2.35586,0l2.35587,0l0,2.03809c0,2.42559 -1.57468,3.32869 -4.05732,2.32692zm6.67495,-2.27091l0,-2.0941l8.37641,0c4.60702,0 8.37641,0.18937 8.37641,0.42083c0,0.23145 -0.77687,1.1738 -1.72638,2.0941l-1.72639,1.67328l-6.65003,0l-6.65002,0l0,-2.09411zm-7.32936,-7.06759l0,-2.35587l2.35586,0l2.35587,0l0,2.35587l0,2.35586l-2.35587,0l-2.35586,0l0,-2.35586zm7.69031,2.01878c-0.19852,-0.19852 -0.36095,-1.26947 -0.36095,-2.37988l0,-2.01893l9.29257,0.14296l9.29259,0.14296l0,2.09411l0,2.0941l-8.93163,0.14282c-4.91239,0.07855 -9.09405,-0.01962 -9.29258,-0.21814zm-7.69031,-9.34814l0,-2.35587l2.35586,0l2.35587,0l0,2.35587l0,2.35586l-2.35587,0l-2.35586,0l0,-2.35586zm7.32936,-0.01208l0,-2.36794l9.29257,0.14296l9.29259,0.14295l0.16098,2.22499l0.16098,2.22498l-9.45356,0l-9.45356,0l0,-2.36794l0,0z" opacity="0.3"/>
   <path stroke="null" fill="#ffffff" stroke-width="1.33333" id="path4395-7" d="m38.39998,58.29903c0,-3.77304 1.55933,-6.55611 6.46409,-11.53697l4.76623,-4.8402l3.02301,2.99147c1.66266,1.64531 3.02301,3.23934 3.02301,3.5423c0,0.94801 -9.08117,9.50519 -10.73228,10.11302c-0.86382,0.318 -2.68961,0.7332 -4.05733,0.92266c-2.48011,0.34356 -2.48675,0.34038 -2.48675,-1.19228zm6.28231,-2.9786c0,-0.79646 -1.07041,-1.88583 -1.85301,-1.88583c-0.71427,0 -1.94317,2.50484 -1.54498,3.14912c0.38863,0.62882 3.398,-0.48998 3.398,-1.26329zm-29.20394,0.43826c-2.63426,-1.84511 -2.73112,-2.59226 -2.73112,-21.06689c0,-10.93197 0.20556,-17.81389 0.56269,-18.83837c1.13276,-3.24943 1.16196,-3.25382 21.64492,-3.25382l18.57979,0l1.39342,1.39342c2.01723,2.01723 2.31885,3.68227 2.31885,12.8007l0,8.18049l-1.96322,0.3245c-1.07977,0.17847 -2.2577,0.32709 -2.61763,0.33026c-0.49264,0.00434 -0.65441,-1.80605 -0.65441,-7.3236l0,-7.32936l-17.28426,0l-17.28425,0l0.13879,15.31312l0.13879,15.31312l9.68522,0.26177c10.69266,0.28899 9.9109,-0.01335 9.13699,3.5338c-0.2554,1.17056 -0.31845,1.17793 -10.07752,1.17793c-8.05181,0 -10.03062,-0.14716 -10.98706,-0.81707zm38.36808,-11.74508l-3.094,-3.12663l1.51285,-1.57907c1.99885,-2.08635 3.31927,-1.99159 5.66067,0.40622c2.36005,2.41691 2.49267,4.09379 0.47654,6.02537l-1.46205,1.40073l-3.094,-3.12663zm-31.54486,1.74491c-0.36719,-0.14816 -0.65441,-1.16401 -0.65441,-2.31454l0,-2.05047l2.35587,0l2.35587,0l0,2.03809c0,2.42559 -1.57468,3.32869 -4.05732,2.32692zm6.67495,-2.27091l0,-2.0941l8.37641,0c4.60703,0 8.37641,0.18937 8.37641,0.42083c0,0.23145 -0.77687,1.1738 -1.72638,2.0941l-1.72638,1.67328l-6.65003,0l-6.65003,0l0,-2.09411zm-7.32936,-7.0676l0,-2.35587l2.35587,0l2.35587,0l0,2.35587l0,2.35587l-2.35587,0l-2.35587,0l0,-2.35587zm7.69031,2.01879c-0.19852,-0.19852 -0.36095,-1.26947 -0.36095,-2.37988l0,-2.01893l9.29258,0.14296l9.29258,0.14296l0,2.0941l0,2.09411l-8.93163,0.14282c-4.91239,0.07855 -9.09405,-0.01961 -9.29258,-0.21813zm-7.69031,-9.34814l0,-2.35587l2.35587,0l2.35587,0l0,2.35587l0,2.35587l-2.35587,0l-2.35587,0l0,-2.35587zm7.32936,-0.01208l0,-2.36795l9.29258,0.14296l9.29258,0.14296l0.16098,2.22499l0.16098,2.22499l-9.45356,0l-9.45356,0l0,-2.36795l0,0z"/>
        </g>
    </g>
</svg>
